<svg width="119" height="89" viewBox="0 0 119 89" fill="none" xmlns="http://www.w3.org/2000/svg">
<g filter="url(#filter0_d_8:34)">
<path d="M18.8994 32.4732L11.6709 34.7544L16.7675 50.7965L25.4343 36.1536L18.8994 32.4732ZM30.8373 12.3035L37.3722 15.9839L46.3329 0.844337L29.0687 5.09846L30.8373 12.3035ZM13.8234 16.496L12.0547 9.29092L4.19625 11.2273L6.59485 18.7772L13.8234 16.496ZM25.3306 31.5823L64.1597 53.4502L71.7999 40.5418L32.9707 18.6739L25.3306 31.5823ZM25.4343 36.1536L37.3722 15.9839L24.3024 8.62317L12.3645 28.7929L25.4343 36.1536ZM29.0687 5.09846L12.0547 9.29092L15.592 23.701L32.606 19.5086L29.0687 5.09846ZM6.59485 18.7772L11.6709 34.7544L26.1279 30.192L21.0519 14.2148L6.59485 18.7772Z" fill="#52B788"/>
</g>
<g filter="url(#filter1_d_8:34)">
<path d="M100.101 25.3616L107.329 23.0805L102.232 7.03836L93.5657 21.6813L100.101 25.3616ZM88.1627 45.5313L81.6278 41.851L72.6671 56.9905L89.9313 52.7364L88.1627 45.5313ZM105.177 41.3389L106.945 48.5439L114.804 46.6075L112.405 39.0577L105.177 41.3389ZM93.6694 26.2525L54.8403 4.3846L47.2001 17.293L86.0293 39.161L93.6694 26.2525ZM93.5657 21.6813L81.6278 41.851L94.6976 49.2117L106.635 29.042L93.5657 21.6813ZM89.9313 52.7364L106.945 48.5439L103.408 34.1338L86.394 38.3263L89.9313 52.7364ZM112.405 39.0577L107.329 23.0805L92.8721 27.6428L97.9481 43.6201L112.405 39.0577Z" fill="#52B788"/>
</g>
<g filter="url(#filter2_d_8:34)">
<path d="M13.472 67.368H8.096V64.2H22.736V67.368H17.36V81H13.472V67.368ZM35.5319 81L32.2919 76.32H32.0999H28.7159V81H24.8279V64.2H32.0999C33.5879 64.2 34.8759 64.448 35.9639 64.944C37.0679 65.44 37.9159 66.144 38.5079 67.056C39.0999 67.968 39.3959 69.048 39.3959 70.296C39.3959 71.544 39.0919 72.624 38.4839 73.536C37.8919 74.432 37.0439 75.12 35.9399 75.6L39.7079 81H35.5319ZM35.4599 70.296C35.4599 69.352 35.1559 68.632 34.5479 68.136C33.9399 67.624 33.0519 67.368 31.8839 67.368H28.7159V73.224H31.8839C33.0519 73.224 33.9399 72.968 34.5479 72.456C35.1559 71.944 35.4599 71.224 35.4599 70.296ZM53.5404 77.4H45.7404L44.2524 81H40.2684L47.7564 64.2H51.5964L59.1084 81H55.0284L53.5404 77.4ZM52.3164 74.448L49.6524 68.016L46.9884 74.448H52.3164ZM60.8514 64.2H68.4834C70.3074 64.2 71.9154 64.552 73.3074 65.256C74.7154 65.944 75.8034 66.92 76.5714 68.184C77.3554 69.448 77.7474 70.92 77.7474 72.6C77.7474 74.28 77.3554 75.752 76.5714 77.016C75.8034 78.28 74.7154 79.264 73.3074 79.968C71.9154 80.656 70.3074 81 68.4834 81H60.8514V64.2ZM68.2914 77.808C69.9714 77.808 71.3074 77.344 72.2994 76.416C73.3074 75.472 73.8114 74.2 73.8114 72.6C73.8114 71 73.3074 69.736 72.2994 68.808C71.3074 67.864 69.9714 67.392 68.2914 67.392H64.7394V77.808H68.2914ZM93.6875 77.88V81H80.6795V64.2H93.3755V67.32H84.5435V70.968H92.3435V73.992H84.5435V77.88H93.6875ZM104.681 75.048V81H100.793V75L94.289 64.2H98.417L102.905 71.664L107.393 64.2H111.209L104.681 75.048Z" fill="black"/>
</g>
<defs>
<filter id="filter0_d_8:34" x="0.196243" y="0.84436" width="75.6037" height="60.6059" filterUnits="userSpaceOnUse" color-interpolation-filters="sRGB">
<feFlood flood-opacity="0" result="BackgroundImageFix"/>
<feColorMatrix in="SourceAlpha" type="matrix" values="0 0 0 0 0 0 0 0 0 0 0 0 0 0 0 0 0 0 127 0" result="hardAlpha"/>
<feOffset dy="4"/>
<feGaussianBlur stdDeviation="2"/>
<feComposite in2="hardAlpha" operator="out"/>
<feColorMatrix type="matrix" values="0 0 0 0 0 0 0 0 0 0 0 0 0 0 0 0 0 0 0.25 0"/>
<feBlend mode="normal" in2="BackgroundImageFix" result="effect1_dropShadow_8:34"/>
<feBlend mode="normal" in="SourceGraphic" in2="effect1_dropShadow_8:34" result="shape"/>
</filter>
<filter id="filter1_d_8:34" x="43.2001" y="4.38458" width="75.6036" height="60.6059" filterUnits="userSpaceOnUse" color-interpolation-filters="sRGB">
<feFlood flood-opacity="0" result="BackgroundImageFix"/>
<feColorMatrix in="SourceAlpha" type="matrix" values="0 0 0 0 0 0 0 0 0 0 0 0 0 0 0 0 0 0 127 0" result="hardAlpha"/>
<feOffset dy="4"/>
<feGaussianBlur stdDeviation="2"/>
<feComposite in2="hardAlpha" operator="out"/>
<feColorMatrix type="matrix" values="0 0 0 0 0 0 0 0 0 0 0 0 0 0 0 0 0 0 0.25 0"/>
<feBlend mode="normal" in2="BackgroundImageFix" result="effect1_dropShadow_8:34"/>
<feBlend mode="normal" in="SourceGraphic" in2="effect1_dropShadow_8:34" result="shape"/>
</filter>
<filter id="filter2_d_8:34" x="4.09599" y="64.2" width="111.113" height="24.8" filterUnits="userSpaceOnUse" color-interpolation-filters="sRGB">
<feFlood flood-opacity="0" result="BackgroundImageFix"/>
<feColorMatrix in="SourceAlpha" type="matrix" values="0 0 0 0 0 0 0 0 0 0 0 0 0 0 0 0 0 0 127 0" result="hardAlpha"/>
<feOffset dy="4"/>
<feGaussianBlur stdDeviation="2"/>
<feComposite in2="hardAlpha" operator="out"/>
<feColorMatrix type="matrix" values="0 0 0 0 0 0 0 0 0 0 0 0 0 0 0 0 0 0 0.25 0"/>
<feBlend mode="normal" in2="BackgroundImageFix" result="effect1_dropShadow_8:34"/>
<feBlend mode="normal" in="SourceGraphic" in2="effect1_dropShadow_8:34" result="shape"/>
</filter>
</defs>
</svg>
