<svg xmlns="http://www.w3.org/2000/svg" viewBox="0 0 82.9 59.97"><defs><style>.cls-1{fill:#53b688;}</style></defs><g id="Warstwa_2" data-name="Warstwa 2"><g id="Warstwa_1-2" data-name="Warstwa 1"><path class="cls-1" d="M10.31,23.11,5.49,24.63l3.4,10.69,5.78-9.76ZM19.47,7.64l4.35,2.45L29.8,0,18.29,2.84Zm-13,3.21L5.24,6.05,0,7.34l1.6,5Zm9.21,10.93L45.41,38.55,50.5,30,20.72,13.17Zm-1,3.78,9.15-15.47-8.71-4.9L6,20.66ZM18.29,2.84l-13,3.21L7.6,15.66l13.05-3.22ZM1.6,12.38,5.49,24.63l9.64-3L11.24,9.33Z"/><path class="cls-1" d="M72.59,17.65l4.82-1.52L74,5.44,68.24,15.2ZM63.44,33.12l-4.36-2.45-6,10.09,11.5-2.83Zm13-3.21,1.17,4.8,5.24-1.29-1.6-5ZM67.28,19,37.49,2.21,32.4,10.82,62.18,27.59Zm1-3.79L59.08,30.67l8.71,4.91L77,20.11ZM64.61,37.93l13-3.22-2.35-9.6L62.26,28.32ZM81.3,28.39,77.41,16.13l-9.64,3.05,3.9,12.25Z"/><path d="M6.06,49.75H2V47.37H13v2.38H9V60H6.06ZM22.6,60l-2.43-3.51H17.49V60H14.57V47.37H20a6.93,6.93,0,0,1,2.89.56,4.29,4.29,0,0,1,1.91,1.58,4.35,4.35,0,0,1,.67,2.43,4.15,4.15,0,0,1-2.59,4l2.82,4Zm-.05-8a2,2,0,0,0-.69-1.62,3,3,0,0,0-2-.57H17.49v4.39h2.37a3,3,0,0,0,2-.58A2,2,0,0,0,22.55,51.94Zm13.56,5.33H30.26L29.14,60h-3l5.62-12.6h2.88L40.28,60H37.22Zm-.92-2.21-2-4.83-2,4.83Zm6.4-7.69h5.72a7.88,7.88,0,0,1,3.62.79,5.76,5.76,0,0,1,2.45,2.2,6.67,6.67,0,0,1,0,6.62,5.87,5.87,0,0,1-2.45,2.22,8.14,8.14,0,0,1-3.62.77H41.59Zm5.58,10.21a4.23,4.23,0,0,0,3-1,3.75,3.75,0,0,0,1.13-2.86,3.68,3.68,0,0,0-1.13-2.84,4.2,4.2,0,0,0-3-1.07H44.51v7.82Zm19,.05V60H56.46V47.37H66v2.34H59.36v2.74h5.85v2.26H59.36v2.92Zm8.24-2.12V60H71.55v-4.5l-4.88-8.1h3.09L73.13,53l3.37-5.6h2.86Z"/></g></g></svg>